Simulation
nRows=32
nColumns=15
endheader
time  TH_x TH_y TH_z SC_y  SC_z  SC_x  AC_y  AC_z  AC_x  GH_y  GH_z  GH_yy  EL_x  PS_y
0.0  0.000000  0.000000  0.000000  -30.52618755766652  -1.5767855947428784  11.840834297191861  57.01925928817326  -6.635913806685703  -12.84286459585136  17.854535650080976  -3.89940043686805  6.11017921524411  25.50335930628002  0.000000
0.015  0.000000  0.000000  0.000000  -30.626072407405857  -1.632169186896728  11.899498619578535  57.04503641938169  -6.582764539025939  -12.870273594670353  17.77686368231784  -3.6603042493912303  5.997483204071791  25.523281749290827  0.000000
0.03  0.000000  0.000000  0.000000  -30.5902005878441  -1.6067112790390716  11.967687408865492  57.09357357079876  -6.585394397733371  -12.875290361342248  17.79183678902173  -3.3772045810098406  5.911465702613381  25.53393698812822  0.000000
0.045  0.000000  0.000000  0.000000  -30.600638224614094  -1.570908693686648  12.049551710647938  57.11943072659342  -6.600459796790647  -12.884501608872554  17.862234336580663  -3.036851352181416  5.786119496875498  25.519598976309045  0.000000
0.06  0.000000  0.000000  0.000000  -30.62593063053801  -1.5407742393240018  12.139929926211144  57.131155785809334  -6.628067766182976  -12.905420725037342  17.9373080016897  -2.648735490600326  5.567550350537664  25.490445049375925  0.000000
0.075  0.000000  0.000000  0.000000  -30.672982988348483  -1.51431840771753  12.241218484328268  57.151243103607776  -6.66842169609128  -12.932506547568995  18.033970948033385  -2.207876683666894  5.275991363819823  25.445358706038448  0.000000
0.09  0.000000  0.000000  0.000000  -30.724651058099287  -1.4876720380328567  12.356000346907708  57.16482916990603  -6.714586565442582  -12.966187765301953  18.144198185032057  -1.7302937537609777  4.9107535769554636  25.393240518374032  0.000000
0.105  0.000000  0.000000  0.000000  -30.778388493968063  -1.4585169909677722  12.48274097139047  57.18277684965202  -6.768418295455147  -13.003196731610092  18.26643204915896  -1.2129282962136476  4.480952526701936  25.333305448741307  0.000000
0.12  0.000000  0.000000  0.000000  -30.833107832053695  -1.4262101066422535  12.62163641117688  57.20128751898808  -6.824581029657566  -13.044670931717691  18.39840165800167  -0.6609199605192174  3.995063016938407  25.27080600559048  0.000000
0.135  0.000000  0.000000  0.000000  -30.88656534477122  -1.389582251221043  12.771460828305406  57.22089748912634  -6.882073004085403  -13.08875666193974  18.536206780346976  -0.07612449269849257  3.460206099340797  25.203950763060877  0.000000
0.15  0.000000  0.000000  0.000000  -30.93896310305158  -1.3492813380254725  12.930708735559817  57.24307024048167  -6.938054104391339  -13.136044693199521  18.676994396334777  0.5397571300585872  2.884154170987041  25.13516133805684  0.000000
0.16499999999999998  0.000000  0.000000  0.000000  -30.98962731746024  -1.3050807654450112  13.098403399522748  57.26644339967361  -6.9903173658711495  -13.18559928931517  18.81882700374995  1.1836017353959076  2.274750899884679  25.063571623738067  0.000000
0.18  0.000000  0.000000  0.000000  -31.038060284570374  -1.257498915373949  13.272634290813409  57.29253372540308  -7.037131014295609  -13.237100012898178  18.95876856530558  1.853450555736886  1.6382161471888572  24.98997349431149  0.000000
0.195  0.000000  0.000000  0.000000  -31.08449481767276  -1.2066503305775538  13.451999425666697  57.32050157094844  -7.076302509409958  -13.289873938372526  19.09574104528677  2.546361830949994  0.9816942043516698  24.91424956638194  0.000000
0.21  0.000000  0.000000  0.000000  -31.128680056898446  -1.153002795428735  13.634888243602036  57.35123959665986  -7.106665393901395  -13.343490327426078  19.227388286180943  3.260114677208159  0.31036387032691143  24.836753302267642  0.000000
0.22499999999999998  0.000000  0.000000  0.000000  -31.170833796170648  -1.0971166667731542  13.82085658468555  57.384696955292426  -7.127231431520385  -13.397809736750931  19.353141593477417  3.9921780156000275  -0.3697707346407483  24.757441121112887  0.000000
0.24  0.000000  0.000000  0.000000  -31.21085437170465  -1.0393808319495799  14.00955661085702  57.42213240718515  -7.137918422641282  -13.452168409288264  19.471979905400296  4.740435900022368  -1.0541006967336501  24.6763200431075  0.000000
0.255  0.000000  0.000000  0.000000  -31.249114360718764  -0.9801333384060016  14.200430235794878  57.46396593618135  -7.137824479954636  -13.505737543438073  19.583850570526025  5.502671458427041  -1.7380505442444487  24.59338870648607  0.000000
0.27  0.000000  0.000000  0.000000  -31.285702456124497  -0.9195438420584774  14.392632774928895  57.51103903804887  -7.1261556029298285  -13.557784231429684  19.687932627371136  6.277049642559313  -2.418595496929758  24.50849791347587  0.000000
0.285  0.000000  0.000000  0.000000  -31.3214038144321  -0.8572260041300243  14.585661296545869  57.562685156900095  -7.1013151902714915  -13.607941758364657  19.78449891967417  7.061478841141186  -3.092294754598595  24.421486739355725  0.000000
0.3  0.000000  0.000000  0.000000  -31.35672047318928  -0.7925101961524643  14.77875608383504  57.61879050500795  -7.061940309520847  -13.656027479315288  19.873018351546076  7.854501383882549  -3.7571841691912558  24.332270643530837  0.000000
0.315  0.000000  0.000000  0.000000  -31.392273604412548  -0.7248475593230679  14.971542727812103  57.67830469650747  -7.006124823596975  -13.701947696422799  19.953549382545862  8.654568564248697  -4.411135190576529  24.239920539746585  0.000000
0.32999999999999996  0.000000  0.000000  0.000000  -31.429158409369176  -0.6541512790397539  15.163222041652938  57.740657559051435  -6.931129602509728  -13.745982608960007  20.02583100527084  9.460523233328288  -5.052687421767843  24.144134088290567  0.000000
0.345  0.000000  0.000000  0.000000  -31.46877640487128  -0.5799951992101913  15.352443346487524  57.804410314263656  -6.834116530968822  -13.788328212429729  20.089342608098406  10.271608901726225  -5.680783829832928  24.044406613829565  0.000000
0.36  0.000000  0.000000  0.000000  -31.512322784523526  -0.50183525496989  15.537952174431949  57.86957032968606  -6.712480524219673  -13.829491948302659  20.143003668102274  11.086903175974395  -6.294921297636544  23.941142788780542  0.000000
0.375  0.000000  0.000000  0.000000  -31.56049023833398  -0.4176703960677364  15.718797628774869  57.936209118808115  -6.564733378751296  -13.867997670409379  20.18691572694354  11.904627780632735  -6.893624425764327  23.83517267308637  0.000000
0.39  0.000000  0.000000  0.000000  -31.613276895822253  -0.3259037284340458  15.891708329205517  58.006048507769435  -6.390437943315741  -13.899175780177329  20.221342068389962  12.723188216248253  -7.476359385639621  23.72580214097591  0.000000
0.40499999999999997  0.000000  0.000000  0.000000  -31.66998580293182  -0.22873590950869024  16.051569598881937  58.07947738225253  -6.187052885856225  -13.919547268385747  20.24692188452692  13.539975302145704  -8.04226932191297  23.612721410309437  0.000000
0.42  0.000000  0.000000  0.000000  -31.728094385187443  -0.12799044829118378  16.193421120016552  58.156569258820234  -5.953244910243936  -13.926094911677165  20.263815987433677  14.351411672151057  -8.591672373421465  23.49576951120551  0.000000
0.435  0.000000  0.000000  0.000000  -31.785583854285143  -0.0234665087092298  16.31489119864906  58.23648603381134  -5.690346745140575  -13.915397848110237  20.27306327192838  15.15365447192625  -9.124402709127546  23.37456574365675  0.000000
0.44999999999999996  0.000000  0.000000  0.000000  -31.842292117928636  0.08575466928947977  16.41871967995773  58.319764682994695  -5.4034802091679985  -13.885572417997741  20.276708454063584  15.943728172524153  -9.639755777853294  23.249427844072308  0.000000
0.46499999999999997  0.000000  0.000000  0.000000  -31.899321041535874  0.20183233485763924  16.510346805971203  58.4095035979493  -5.100326959002891  -13.834630676536356  20.277539443677586  16.720234889721795  -10.136972349141628  23.120133693153363  0.000000
